# xmcd
#
# Track frame offsets:
#	150
#	20556
#	45451
#	61754
#	83356
#	108826
#	133372
#	154144
#	171342
#	199274
#	216471
#	240732
#
# Disc length: 3441 seconds
#
# Revision: 0
# Processed by: cddbd v1.5.1PL0 Copyright (c) Steve Scherf et al.
# Submitted via: dBpowerAMP V4.0
#
DISCID=a30d6f0c
DTITLE=OLD BLUESTERS - Time's up
DYEAR=2004
DGENRE=Blues
TTITLE0=I can tell
TTITLE1=Got a new love
TTITLE2=So lovely
TTITLE3=Why get up
TTITLE4=Mister B
TTITLE5=Funky time
TTITLE6=Wait on time
TTITLE7=I wish you could see me now
TTITLE8=Get out my life woman
TTITLE9=Too tired
TTITLE10=The thrill is gone
TTITLE11=Jekyll and Hyde
EXTD=
EXTT0=
EXTT1=
EXTT2=
EXTT3=
EXTT4=
EXTT5=
EXTT6=
EXTT7=
EXTT8=
EXTT9=
EXTT10=
EXTT11=
PLAYORDER=
